<?xml version="1.0" encoding="UTF-8"?>
<svg id="Layer_2" data-name="Layer 2" xmlns="http://www.w3.org/2000/svg" viewBox="0 0 822 227">
  <defs>
    <style>
      .cls-1, .cls-2 {
        stroke-width: 0px;
      }

      .cls-1, .cls-3 {
        fill: #6d28d9;
      }

      .cls-2 {
        fill: #fff;
      }

      .cls-3 {
        font-family: VastagoGrotesk-SemiBold, 'Vastago Grotesk';
        font-size: 121.59px;
        font-weight: 600;
      }
    </style>
  </defs>
  <g id="Layer_2-2" data-name="Layer 2">
    <path class="cls-1" d="M264,122c-4.94,3.3-17.66,9.99-34.14,15.7,9.4,3.57,17.69,8.25,23.14,14.3,18,20-5,40-14,48s-25,20-44,6c-6.32-4.65-12.96-13.29-18.36-24.25-5.41,10.96-12.05,19.6-18.37,24.25-19,14-35,2-44-6s-32-28-14-48c5.45-6.05,13.73-10.73,23.14-14.3-16.48-5.71-29.2-12.4-34.14-15.7-21-14-30-102-4-111,24.04-8.32,70.3,40.62,91.37,80.46C197.7,51.62,243.96,2.68,268,11c26,9,17,97-4,111Z"/>
    <text class="cls-3" transform="translate(332.86 144.61)"><tspan x="0" y="0">Morpho</tspan></text>
    <path class="cls-2" d="M262,138c-46.95,0-85,38.05-85,85,0-46.95-38.05-85-85-85,46.95,0,85-38.05,85-85,0,46.95,38.05,85,85,85Z"/>
    <path class="cls-1" d="M216,138c-21.54,0-39,17.46-39,39,0-21.54-17.46-39-39-39,21.54,0,39-17.46,39-39,0,21.54,17.46,39,39,39Z"/>
  </g>
</svg>